<svg width="48" height="48" viewBox="0 0 48 48" fill="none" xmlns="http://www.w3.org/2000/svg">
<rect width="48" height="48" fill="#F5F5F5"/>
<g clip-path="url(#clip0_0_1)">
<rect width="1280" height="5845" transform="translate(-305 -1067)" fill="white"/>
<path d="M0 24C0 10.7452 10.7452 0 24 0C37.2548 0 48 10.7452 48 24C48 37.2548 37.2548 48 24 48C10.7452 48 0 37.2548 0 24Z" fill="#014C48"/>
<path d="M23.2182 30V20.792H20.9862V19.824C21.6795 19.824 22.2182 19.7733 22.6022 19.672C22.9862 19.5707 23.2582 19.416 23.4182 19.208C23.5835 19 23.6742 18.7413 23.6902 18.432H24.7462V30H23.2182Z" fill="white"/>
</g>
<defs>
<clipPath id="clip0_0_1">
<rect width="1280" height="5845" fill="white" transform="translate(-305 -1067)"/>
</clipPath>
</defs>
</svg>
